
<svg xmlns="http://www.w3.org/2000/svg" viewBox="0 0 100 100" width="100" height="100">
  <!-- Geometric Panda Head Shape -->
  <polygon points="20,30 80,30 70,70 30,70" fill="#F1F1F1" stroke="#000" stroke-width="3"/>
  
  <!-- Geometric Ears -->
  <polygon points="10,20 25,30 10,40" fill="#000" />
  <polygon points="90,20 75,30 90,40" fill="#000" />
  
  <!-- Stylized Circuit Board Eyes -->
  <path d="M35,40 L45,40 Q40,50 35,40 Z" fill="#1EAEDB" />
  <path d="M55,40 L65,40 Q60,50 55,40 Z" fill="#1EAEDB" />
  
  <!-- Tech-Inspired Nose -->
  <path d="M45,55 Q50,60 55,55" stroke="#000" stroke-width="2" fill="none"/>
  
  <!-- Circuit Board Lines -->
  <path d="M20,65 Q50,80 80,65" stroke="#8B5CF6" stroke-width="1" fill="none"/>
  <path d="M30,75 Q50,85 70,75" stroke="#1EAEDB" stroke-width="1" fill="none"/>
  
  <!-- Binary/Tech Accents -->
  <rect x="25" y="85" width="3" height="3" fill="#8B5CF6"/>
  <rect x="35" y="85" width="3" height="3" fill="#1EAEDB"/>
  <rect x="60" y="85" width="3" height="3" fill="#8B5CF6"/>
  <rect x="70" y="85" width="3" height="3" fill="#1EAEDB"/>
</svg>
